# xmcd CD database file
#
# Track frame offsets:
#	375
#	21872
#	43975
#	65414
#	88405
#	108729
#	131044
#	150775
#	173669
#	196649
#	214923
#	225548
#	242787
#	262134
#	280615
#	301275
#
# Disc length: 4297 seconds
#
# Revision: 0
# Processed by: cddbd v1.5.2PL0 Copyright (c) Steve Scherf et al.
# Submitted via: CDex 1.51
#
DISCID=e210c410
DTITLE=Dunn Pearson - Undercover Lover - Satin Sax
DYEAR=1999
DGENRE=Jazz
TTITLE0=Up All Night (vocal) - Najee
TTITLE1=Nital - Fred Watt
TTITLE2=Apologize - Marion Meadows
TTITLE3=Most Def'netly - Grover Washington, Jr.
TTITLE4=I Don't Know (instrumental) - Najee
TTITLE5=So Far Away - Kenny Giofrey
TTITLE6=Not Love - Danny Pickering
TTITLE7=Programmed For Love - Dunn Pearson
TTITLE8=And I Love Her - Marion Meadows
TTITLE9=That's The Way Love Goes - Fred Watt
TTITLE10=You Don't Have To Say You Love Me - Sammy "Sax" Mintzer
TTITLE11=You're My Girl - Kenny Giofrey
TTITLE12=Lady - Steve Sechi
TTITLE13=This Boy (Ringo's Theme) - Danny Pickering
TTITLE14=I Don't Know (vocal) - Najee
TTITLE15=Up All Night (instrumental) - Najee
EXTD=YEAR: 1999
EXTT0=
EXTT1=
EXTT2=
EXTT3=
EXTT4=
EXTT5=
EXTT6=
EXTT7=
EXTT8=
EXTT9=
EXTT10=
EXTT11=
EXTT12=
EXTT13=
EXTT14=
EXTT15=
PLAYORDER=
